<?xml version="1.0" standalone="no"?>
<!DOCTYPE svg PUBLIC "-//W3C//DTD SVG 20010904//EN"
 "http://www.w3.org/TR/2001/REC-SVG-20010904/DTD/svg10.dtd">
<svg version="1.0" xmlns="http://www.w3.org/2000/svg"
 width="512.000000pt" height="512.000000pt" viewBox="0 0 512.000000 512.000000"
 preserveAspectRatio="xMidYMid meet">
<metadata>
Created by potrace 1.14, written by Peter Selinger 2001-2017
</metadata>
<g transform="translate(0.000000,512.000000) scale(0.100000,-0.100000)"
fill="#000000" stroke="none">
<path d="M2245 5051 c-80 -20 -145 -82 -164 -155 -6 -22 -15 -122 -21 -221 -5
-99 -13 -210 -16 -246 l-6 -65 -86 -28 c-48 -16 -138 -53 -201 -82 l-114 -54
-81 74 c-45 41 -126 115 -181 166 -120 110 -160 133 -235 134 -91 1 -125 -23
-342 -241 -184 -186 -197 -202 -213 -255 -18 -63 -14 -111 16 -168 17 -33 53
-75 261 -302 l88 -95 -54 -114 c-29 -63 -66 -153 -82 -201 l-28 -86 -55 -6
c-31 -3 -144 -11 -251 -16 -255 -15 -310 -35 -363 -134 -21 -40 -22 -51 -22
-341 0 -291 1 -301 22 -342 27 -50 86 -100 133 -113 19 -5 147 -16 285 -25
137 -9 250 -17 250 -18 1 -1 14 -40 29 -87 15 -47 52 -136 82 -199 l54 -114
-37 -41 c-20 -22 -96 -105 -168 -184 -71 -79 -139 -160 -149 -180 -27 -52 -26
-144 2 -197 25 -48 393 -416 439 -439 52 -26 114 -30 170 -12 40 13 86 50 241
191 l191 175 99 -49 c54 -27 141 -64 193 -82 52 -18 97 -35 102 -39 4 -3 14
-114 22 -246 9 -131 21 -259 27 -284 15 -58 86 -131 144 -148 57 -17 561 -17
618 0 57 17 129 90 144 148 6 25 18 153 27 284 8 132 18 243 22 246 5 4 50 21
102 39 52 18 139 55 193 82 l99 50 161 -148 c88 -81 177 -162 199 -179 70 -56
164 -67 243 -28 45 23 413 391 438 439 28 53 29 145 2 197 -10 20 -78 101
-149 180 -72 79 -148 162 -168 184 l-37 41 54 114 c30 63 67 152 82 199 15 47
28 86 29 87 0 1 113 9 250 18 138 9 266 20 285 25 47 13 106 63 133 113 21 41
22 51 22 342 0 290 -1 301 -22 341 -53 99 -108 119 -363 134 -107 5 -220 13
-251 16 l-55 6 -28 86 c-16 48 -53 138 -82 201 l-54 114 84 91 c46 50 120 132
166 181 123 135 145 189 115 292 -16 55 -27 69 -213 256 -217 218 -251 242
-342 241 -75 -1 -115 -24 -235 -134 -55 -51 -136 -125 -181 -166 l-81 -74
-114 54 c-63 29 -153 66 -201 82 l-86 28 -6 65 c-3 36 -11 147 -16 246 -6 99
-15 199 -21 221 -14 53 -59 108 -112 137 -40 21 -54 22 -322 24 -154 1 -293
-2 -310 -6z m455 -1356 c242 -36 457 -149 627 -328 129 -136 221 -301 270
-484 23 -87 26 -116 26 -268 0 -153 -2 -180 -26 -270 -32 -120 -116 -295 -185
-385 -357 -469 -998 -578 -1487 -255 -78 52 -204 172 -267 255 -69 90 -153
265 -185 385 -24 90 -26 117 -26 270 0 152 3 181 26 268 81 304 284 560 558
702 209 108 436 146 669 110z"/>
<path d="M2430 3280 c-74 -12 -177 -50 -247 -91 -76 -46 -179 -151 -226 -230
-63 -107 -90 -206 -91 -334 -1 -133 12 -191 70 -313 79 -164 232 -292 419
-348 83 -25 277 -25 360 0 248 75 432 276 481 526 64 328 -136 663 -458 765
-87 27 -223 39 -308 25z m247 -302 c105 -39 203 -144 235 -253 7 -22 12 -77
12 -122 0 -74 -4 -89 -37 -157 -146 -295 -554 -299 -701 -6 -116 233 19 506
276 560 58 12 149 3 215 -22z"/>
</g>
</svg>
